{"title":"Skyline-720p MP4 AAC BRRip 2010-CC","uid":7092339,"size":2058885643,"categoryP":"video","categoryS":"hd___movies","magnet":"?xt=urn:btih:9212876a70488c600b487f2b3c4857368e7f32f1&amp;dn=Skyline-720p+MP4+AAC+BRRip+2010-CC&amp;tr=udp%3A%2F%2Ftracker.openbittorrent.com%3A80&amp;tr=udp%3A%2F%2Fopen.demonii.com%3A1337&amp;tr=udp%3A%2F%2Ftracker.coppersurfer.tk%3A6969&amp;tr=udp%3A%2F%2Fexodus.desync.com%3A6969","seeders":0,"leechers":1,"uploader":"Caveman44","files":-1,"time":1331408641,"description":"Source: Skyline.720p.BluRay.x264-iNFAMOUS\n\nSubs: Arabic, Brazilian, Bulgarian, Danish, Dutch, English, Finnish, Hebrew, Hungarian, Indonesian, Servian, Slovenian, Swedish and Vietnamese.\n\nSample and Screens included.\n\nGeneral\nComplete name                    : Skyline-720p MP4 AAC BRRip 2010-CC.mp4\nFormat                           : MPEG-4\nFormat profile                   : Base Media\nCodec ID                         : isom\nFile size                        : 1.89 GiB\nDuration                         : 1h 32mn\nOverall bit rate                 : 2 919 Kbps\nEncoded date                     : UTC 2012-03-09 10:46:35\n\nVideo\nID                               : 1\nFormat                           : AVC\nFormat/Info                      : Advanced Video Codec\nFormat profile                   : &lt;a class=&quot;__cf_email__&quot; href=&quot;/cdn-cgi/l/email-protection&quot; data-cfemail=&quot;0c44656b644c403f223d&quot;&gt;[email&amp;#160;protected]&lt;/a&gt;&lt;script cf-hash='f9e31' type=&quot;text/javascript&quot;&gt;\n/* &lt;![CDATA[ */!function(){try{var t=&quot;currentScript&quot;in document?document.currentScript:function(){for(var t=document.getElementsByTagName(&quot;script&quot;),e=t.length;e--;)if(t[e].getAttribute(&quot;cf-hash&quot;))return t[e]}();if(t&amp;&amp;t.previousSibling){var e,r,n,i,c=t.previousSibling,a=c.getAttribute(&quot;data-cfemail&quot;);if(a){for(e=&quot;&quot;,r=parseInt(a.substr(0,2),16),n=2;a.length-n;n+=2)i=parseInt(a.substr(n,2),16)^r,e+=String.fromCharCode(i);e=document.createTextNode(e),c.parentNode.replaceChild(e,c)}}}catch(u){}}();/* ]]&gt; */&lt;/script&gt;\nFormat settings, CABAC           : Yes\nFormat settings, ReFrames        : 5 frames\nCodec ID                         : avc1\nCodec ID/Info                    : Advanced Video Coding\nDuration                         : 1h 32mn\nBit rate mode                    : Variable\nBit rate                         : 2 520 Kbps\nMaximum bit rate                 : 28.2 Mbps\nWidth                            : 1 280 pixels\nHeight                           : 528 pixels\nDisplay aspect ratio             : 2.40:1\nFrame rate mode                  : Variable\nFrame rate                       : 23.976 fps\nMinimum frame rate               : 23.810 fps\nMaximum frame rate               : 24.390 fps\nResolution                       : 24 bits\nColorimetry                      : 4:2:0\nScan type                        : Progressive\nBits/(Pixel*Frame)               : 0.156\nStream size                      : 1.64 GiB (87%)\nWriting library                  : x264 core 112\n\nAudio\nID                               : 2\nFormat                           : AAC\nFormat/Info                      : Advanced Audio Codec\nFormat version                   : Version 4\nFormat profile                   : LC\nFormat settings, SBR             : No\nCodec ID                         : 40\nDuration                         : 1h 32mn\nBit rate mode                    : Variable\nBit rate                         : 384 Kbps\nMaximum bit rate                 : 701 Kbps\nChannel(s)                       : 6 channels\nChannel positions                : Front: L C R, Rear: L R, LFE\nSampling rate                    : 48.0 KHz\nResolution                       : 16 bits\nStream size                      : 255 MiB (13%)\n\nEnjoy...","torrent":{"xt":"urn:btih:9212876a70488c600b487f2b3c4857368e7f32f1","amp;dn":"Skyline-720p+MP4+AAC+BRRip+2010-CC","amp;tr":["udp%3A%2F%2Ftracker.openbittorrent.com%3A80","udp%3A%2F%2Fopen.demonii.com%3A1337","udp%3A%2F%2Ftracker.coppersurfer.tk%3A6969","udp%3A%2F%2Fexodus.desync.com%3A6969"],"infoHash":"9212876a70488c600b487f2b3c4857368e7f32f1","infoHashBuffer":{"type":"Buffer","data":[146,18,135,106,112,72,140,96,11,72,127,43,60,72,87,54,142,127,50,241]},"announce":[],"urlList":[]}}